# Created by Kenney (www.kenney.nl)

mtllib Ring1.mtl

g mergedBlocks

v 0.4330127 0 0.25
v 0.4 0 -3.609557E-16
v 0.3535534 0 0.3535534
v 0.3863703 0 0.1035276
v 0.3464102 0 0.2
v 0.25 0 0.4330127
v 0.2828427 0 0.2828427
v 0.2 0 0.3464102
v 0.1294095 0 0.4829629
v 0.1035276 0 0.3863703
v 0 0 0.5
v -3.609557E-16 0 0.4
v -0.1294095 0 0.4829629
v -0.1035276 0 0.3863703
v -0.2 0 0.3464102
v -0.25 0 0.4330127
v -0.2828427 0 0.2828427
v -0.3535534 0 0.3535534
v -0.3464102 0 0.2
v -0.3863703 0 0.1035276
v -0.4330127 0 0.25
v -0.4 0 -5.414336E-16
v -0.4330127 0 -0.25
v -0.4829629 0 -0.1294095
v -0.4829629 0 0.1294095
v -0.5 0 -9.023893E-17
v -0.3863703 0 -0.1035276
v -0.3535534 0 -0.3535534
v -0.3464102 0 -0.2
v -0.2828427 0 -0.2828427
v -0.25 0 -0.4330127
v -0.2 0 -0.3464102
v -0.1294095 0 -0.4829629
v -0.1035276 0 -0.3863703
v 0 0 -0.5
v 0 0 -0.4
v 0.1035276 0 -0.3863703
v 0.1294095 0 -0.4829629
v 0.2 0 -0.3464102
v 0.25 0 -0.4330127
v 0.2828427 0 -0.2828427
v 0.3464102 0 -0.2
v 0.3535534 0 -0.3535534
v 0.3863703 0 -0.1035276
v 0.4330127 0 -0.25
v 0.4829629 0 0.1294095
v 0.4829629 0 -0.1294095
v 0.5 0 0
v 0 0.1 -0.4
v -0.1035276 0.1 -0.3863703
v 0.1035276 0.1 -0.3863703
v -0.3863703 0.1 -0.1035276
v -0.4 0.1 -5.414336E-16
v -0.3863703 0.1 0.1035276
v 0.4 0.1 -3.609557E-16
v 0.3863703 0.1 0.1035276
v 0.3863703 0.1 -0.1035276
v 0.2828427 0.1 -0.2828427
v 0.2 0.1 -0.3464102
v 0.3464102 0.1 -0.2
v 0.3464102 0.1 0.2
v 0.2828427 0.1 0.2828427
v 0.2 0.1 0.3464102
v -3.609557E-16 0.1 0.4
v 0.1035276 0.1 0.3863703
v -0.1035276 0.1 0.3863703
v -0.2828427 0.1 0.2828427
v -0.2 0.1 0.3464102
v -0.3464102 0.1 0.2
v -0.2828427 0.1 -0.2828427
v -0.3464102 0.1 -0.2
v -0.2 0.1 -0.3464102
v 0.3288614 0.025 0.1035276
v 0.3288614 0.075 0.1035276
v 0.3057452 0.025 0.159335
v 0.3057452 0.075 0.159335
v 0.1035276 0.025 0.3288614
v 0.159335 0.025 0.3057452
v 0.1035276 0.075 0.3288614
v 0.159335 0.075 0.3057452
v -0.1294095 0.1 -0.4829629
v 0 0.1 -0.5
v -0.25 0.1 -0.4330127
v 0.1294095 0.1 -0.4829629
v -0.3535534 0.1 -0.3535534
v -0.4330127 0.1 -0.25
v -0.4829629 0.1 -0.1294095
v -0.5 0.1 -9.023893E-17
v -0.4829629 0.1 0.1294095
v -0.4330127 0.1 0.25
v -0.3535534 0.1 0.3535534
v -0.25 0.1 0.4330127
v -0.1294095 0.1 0.4829629
v 0 0.1 0.5
v 0.1294095 0.1 0.4829629
v 0.25 0.1 0.4330127
v 0.3535534 0.1 0.3535534
v 0.4330127 0.1 0.25
v 0.4829629 0.1 0.1294095
v 0.5 0.1 0
v 0.4829629 0.1 -0.1294095
v 0.4330127 0.1 -0.25
v 0.3535534 0.1 -0.3535534
v 0.25 0.1 -0.4330127
v 0.3288614 0.025 -0.1035276
v 0.3057452 0.025 -0.159335
v -0.1035276 0.025 -0.3288614
v -0.159335 0.025 -0.3057452
v -0.3057452 0.075 -0.159335
v -0.3288614 0.075 -0.1035276
v -0.3057452 0.025 -0.159335
v -0.3288614 0.025 -0.1035276
v -0.1035276 0.025 0.3288614
v -0.159335 0.025 0.3057452
v -0.3057452 0.075 0.159335
v -0.3288614 0.075 0.1035276
v 0.1035276 0.025 -0.3288614
v 0.1035276 0.075 -0.3288614
v 0.3057452 0.075 -0.159335
v -0.1035276 0.075 0.3288614
v 0.159335 0.075 -0.3057452
v -0.1035276 0.075 -0.3288614
v -0.3288614 0.025 0.1035276
v 0.3288614 0.075 -0.1035276
v 0.159335 0.025 -0.3057452
v -0.159335 0.075 -0.3057452
v -0.159335 0.075 0.3057452
v -0.3057452 0.025 0.159335

vn 0 -1 0
vn 0 0 1
vn 0.1305262 0 0.9914449
vn -0.1305262 0 0.9914449
vn 0.9914449 0 0.1305262
vn 1 0 0
vn 0.9914449 0 -0.1305262
vn -1 0 0
vn -0.9914449 0 -0.1305262
vn -0.9914449 0 0.1305262
vn -0.7071068 0 0.7071068
vn -0.6087614 0 0.7933533
vn -0.7933533 0 0.6087614
vn -0.7933533 0 -0.6087614
vn -0.7071068 0 -0.7071068
vn -0.6087614 0 -0.7933533
vn 0 0 -1
vn -0.1305262 0 -0.9914449
vn 0.1305262 0 -0.9914449
vn 0.7071068 0 -0.7071068
vn 0.6087614 0 -0.7933533
vn 0.7933533 0 -0.6087614
vn 0.7071068 0 0.7071068
vn 0.7933533 0 0.6087614
vn 0.6087614 0 0.7933533
vn -0.9238795 0 -0.3826834
vn -0.3826834 0 -0.9238795
vn -0.258819 0 -0.9659258
vn -0.5 0 -0.8660254
vn 0.258819 0 -0.9659258
vn -0.8660254 0 -0.5
vn -0.9659258 0 -0.258819
vn -0.9659258 0 0.258819
vn -0.8660254 0 0.5
vn -0.5 0 0.8660254
vn -0.258819 0 0.9659258
vn 0.258819 0 0.9659258
vn 0.5 0 0.8660254
vn 0.8660254 0 0.5
vn 0.9659258 0 0.258819
vn 0.9659258 0 -0.258819
vn 0.8660254 0 -0.5
vn 0.5 0 -0.8660254
vn 0 1 0
vn -0.3933465 -0.9048384 0.1629295
vn -0.3933465 0.9048384 -0.1629295
vn 0.1629295 -0.9048384 0.3933465
vn 0.3933465 0.9048384 0.1629295
vn -0.1629295 0.9048384 -0.3933465
vn 0.3933465 -0.9048384 0.1629295
vn 0.1629295 -0.9048384 -0.3933465
vn -0.1629295 -0.9048384 -0.3933465
vn 0.3933465 0.9048384 -0.1629295
vn -0.1629295 0.9048384 0.3933465
vn -0.3933465 0.9048384 0.1629295
vn 0.1629295 0.9048384 -0.3933465
vn 0.1629295 0.9048384 0.3933465
vn 0.9238795 0 0.3826834
vn -0.3826834 0 0.9238795
vn 0.9238795 0 -0.3826834
vn -0.9238795 0 0.3826834
vn 0.3826834 0 0.9238795
vn -0.3933465 -0.9048384 -0.1629295
vn -0.1629295 -0.9048384 0.3933465
vn 0.3826834 0 -0.9238795
vn 0.3933465 -0.9048384 -0.1629295

vt -0.4330127 -0.25
vt -0.4 3.609557E-16
vt -0.3535534 -0.3535534
vt -0.3863703 -0.1035276
vt -0.3464102 -0.2
vt -0.25 -0.4330127
vt -0.2828427 -0.2828427
vt -0.2 -0.3464102
vt -0.1294095 -0.4829629
vt -0.1035276 -0.3863703
vt 0 -0.5
vt 3.609557E-16 -0.4
vt 0.1294095 -0.4829629
vt 0.1035276 -0.3863703
vt 0.2 -0.3464102
vt 0.25 -0.4330127
vt 0.2828427 -0.2828427
vt 0.3535534 -0.3535534
vt 0.3464102 -0.2
vt 0.3863703 -0.1035276
vt 0.4330127 -0.25
vt 0.4 5.414336E-16
vt 0.4330127 0.25
vt 0.4829629 0.1294095
vt 0.4829629 -0.1294095
vt 0.5 9.023893E-17
vt 0.3863703 0.1035276
vt 0.3535534 0.3535534
vt 0.3464102 0.2
vt 0.2828427 0.2828427
vt 0.25 0.4330127
vt 0.2 0.3464102
vt 0.1294095 0.4829629
vt 0.1035276 0.3863703
vt 0 0.5
vt 0 0.4
vt -0.1035276 0.3863703
vt -0.1294095 0.4829629
vt -0.2 0.3464102
vt -0.25 0.4330127
vt -0.2828427 0.2828427
vt -0.3464102 0.2
vt -0.3535534 0.3535534
vt -0.3863703 0.1035276
vt -0.4330127 0.25
vt -0.4829629 -0.1294095
vt -0.4829629 0.1294095
vt -0.5 0
vt 0 0
vt -0.1035276 0
vt 0 0.1
vt -0.1035276 0.1
vt 0.1035276 0.1
vt 0.1035276 0
vt 5.414336E-16 0.1
vt 5.414336E-16 0
vt -3.609557E-16 0
vt -3.609557E-16 0.1
vt 0.2828427 0
vt 0.2 0
vt 0.2828427 0.1
vt 0.2 0.1
vt -0.2828427 0
vt -0.2828427 0.1
vt -0.2 0
vt -0.2 0.1
vt 3.609557E-16 0
vt 3.609557E-16 0.1
vt 0.1035276 0.025
vt 0.1035276 0.075
vt 0.159335 0.025
vt 0.159335 0.075
vt -0.1035276 0.025
vt -0.159335 0.025
vt -0.1035276 0.075
vt -0.159335 0.075
vt 0.1294095 0
vt 0.1294095 0.1
vt 0.25 0.1
vt 0.25 0
vt -0.1294095 0
vt -0.1294095 0.1
vt 0.3535534 0.1
vt 0.3535534 0
vt -0.3535534 0
vt -0.3535534 0.1
vt -0.25 0
vt -0.25 0.1
vt -9.023893E-17 0
vt -9.023893E-17 0.1
vt -0.4 -3.609557E-16
vt 0 -0.4
vt 0.4 -5.414336E-16
vt 3.609557E-16 0.4
vt 0.5 -9.023893E-17
vt -0.3288614 0.1035276
vt -0.3057452 0.159335
vt 0.3288614 0.025
vt 0.3288614 0.075
vt 0.3863703 0
vt 0.3863703 0.1
vt 0.1035276 0.3288614
vt 0.159335 0.3057452
vt 0.3057452 0.025
vt 0.3057452 0.075
vt 0.3464102 0
vt 0.3464102 0.1
vt -0.3863703 0
vt -0.3863703 0.1
vt -0.3288614 0.025
vt -0.3288614 0.075
vt 0.3057452 -0.159335
vt 0.3288614 -0.1035276
vt -0.159335 0.3057452
vt -0.1035276 0.3288614
vt 0.3057452 0.159335
vt 0.3288614 0.1035276
vt 0.1035276 -0.3288614
vt 0.159335 -0.3057452
vt -0.159335 -0.3057452
vt -0.1035276 -0.3288614
vt -0.3464102 0
vt -0.3464102 0.1
vt -0.3057452 0.025
vt -0.3057452 0.075
vt -0.3288614 -0.1035276
vt -0.3057452 -0.159335

usemtl _defaultMat(Clone)

f 3/3/1 2/2/1 1/1/1
f 2/2/1 3/3/1 4/4/1
f 4/4/1 3/3/1 5/5/1
f 5/5/1 3/3/1 6/6/1
f 5/5/1 6/6/1 7/7/1
f 7/7/1 6/6/1 8/8/1
f 8/8/1 6/6/1 9/9/1
f 8/8/1 9/9/1 10/10/1
f 10/10/1 9/9/1 11/11/1
f 10/10/1 11/11/1 12/12/1
f 12/12/1 11/11/1 13/13/1
f 12/12/1 13/13/1 14/14/1
f 14/14/1 13/13/1 15/15/1
f 15/15/1 13/13/1 16/16/1
f 15/15/1 16/16/1 17/17/1
f 17/17/1 16/16/1 18/18/1
f 17/17/1 18/18/1 19/19/1
f 19/19/1 18/18/1 20/20/1
f 20/20/1 18/18/1 21/21/1
f 20/20/1 21/21/1 22/22/1
f 22/22/1 21/21/1 23/23/1
f 23/23/1 21/21/1 24/24/1
f 24/24/1 21/21/1 25/25/1
f 24/24/1 25/25/1 26/26/1
f 23/23/1 27/27/1 22/22/1
f 28/28/1 27/27/1 23/23/1
f 28/28/1 29/29/1 27/27/1
f 28/28/1 30/30/1 29/29/1
f 31/31/1 30/30/1 28/28/1
f 31/31/1 32/32/1 30/30/1
f 33/33/1 32/32/1 31/31/1
f 33/33/1 34/34/1 32/32/1
f 35/35/1 34/34/1 33/33/1
f 35/35/1 36/36/1 34/34/1
f 35/35/1 37/37/1 36/36/1
f 38/38/1 37/37/1 35/35/1
f 38/38/1 39/39/1 37/37/1
f 40/40/1 39/39/1 38/38/1
f 40/40/1 41/41/1 39/39/1
f 40/40/1 42/42/1 41/41/1
f 43/43/1 42/42/1 40/40/1
f 43/43/1 44/44/1 42/42/1
f 43/43/1 2/2/1 44/44/1
f 43/43/1 1/1/1 2/2/1
f 45/45/1 1/1/1 43/43/1
f 45/45/1 46/46/1 1/1/1
f 47/47/1 46/46/1 45/45/1
f 46/46/1 47/47/1 48/48/1
f 49/51/2 34/50/3 36/49/2
f 34/50/3 49/51/2 50/52/3
f 36/49/2 51/53/4 49/51/2
f 51/53/4 36/49/2 37/54/4
f 53/55/6 27/54/5 52/53/5
f 27/54/5 53/55/6 22/56/6
f 54/52/7 22/56/6 53/55/6
f 22/56/6 54/52/7 20/50/7
f 4/54/9 55/58/8 2/57/8
f 55/58/8 4/54/9 56/53/9
f 57/52/10 2/57/8 55/58/8
f 2/57/8 57/52/10 44/50/10
f 58/61/11 39/60/12 41/59/11
f 39/60/12 58/61/11 59/62/12
f 42/65/13 58/64/11 41/63/11
f 58/64/11 42/65/13 60/66/13
f 7/59/15 61/62/14 5/60/14
f 61/62/14 7/59/15 62/61/15
f 7/63/15 63/66/16 62/64/15
f 63/66/16 7/63/15 8/65/16
f 64/68/17 10/50/18 12/67/17
f 10/50/18 64/68/17 65/52/18
f 12/67/17 66/53/19 64/68/17
f 66/53/19 12/67/17 14/54/19
f 67/61/20 15/60/21 17/59/20
f 15/60/21 67/61/20 68/62/21
f 19/65/22 67/64/20 17/63/20
f 67/64/20 19/65/22 69/66/22
f 71/62/24 30/59/23 70/61/23
f 30/59/23 71/62/24 29/60/24
f 30/63/23 72/66/25 70/64/23
f 72/66/25 30/63/23 32/65/25
f 75/71/26 74/70/26 73/69/26
f 74/70/26 75/71/26 76/72/26
f 79/75/27 78/74/27 77/73/27
f 78/74/27 79/75/27 80/76/27
f 81/78/28 35/49/17 33/77/28
f 35/49/17 81/78/28 82/51/17
f 33/77/28 83/79/29 81/78/28
f 83/79/29 33/77/28 31/80/29
f 82/51/17 38/81/30 35/49/17
f 38/81/30 82/51/17 84/82/30
f 31/80/29 85/83/15 83/79/29
f 85/83/15 31/80/29 28/84/15
f 23/87/31 85/86/15 28/85/15
f 85/86/15 23/87/31 86/88/31
f 24/81/32 86/88/31 23/87/31
f 86/88/31 24/81/32 87/82/32
f 26/89/8 87/82/32 24/81/32
f 87/82/32 26/89/8 88/90/8
f 25/77/33 88/90/8 26/89/8
f 88/90/8 25/77/33 89/78/33
f 21/80/34 89/78/33 25/77/33
f 89/78/33 21/80/34 90/79/34
f 18/84/11 90/79/34 21/80/34
f 90/79/34 18/84/11 91/83/11
f 18/85/11 92/88/35 91/86/11
f 92/88/35 18/85/11 16/87/35
f 16/87/35 93/82/36 92/88/35
f 93/82/36 16/87/35 13/81/36
f 13/81/36 94/51/2 93/82/36
f 94/51/2 13/81/36 11/49/2
f 11/49/2 95/78/37 94/51/2
f 95/78/37 11/49/2 9/77/37
f 9/77/37 96/79/38 95/78/37
f 96/79/38 9/77/37 6/80/38
f 6/80/38 97/83/23 96/79/38
f 97/83/23 6/80/38 3/84/23
f 1/87/39 97/86/23 3/85/23
f 97/86/23 1/87/39 98/88/39
f 46/81/40 98/88/39 1/87/39
f 98/88/39 46/81/40 99/82/40
f 48/49/6 99/82/40 46/81/40
f 99/82/40 48/49/6 100/51/6
f 47/77/41 100/51/6 48/49/6
f 100/51/6 47/77/41 101/78/41
f 45/80/42 101/78/41 47/77/41
f 101/78/41 45/80/42 102/79/42
f 43/84/20 102/79/42 45/80/42
f 102/79/42 43/84/20 103/83/20
f 43/85/20 104/88/43 103/86/20
f 104/88/43 43/85/20 40/87/43
f 40/87/43 84/82/30 104/88/43
f 84/82/30 40/87/43 38/81/30
f 101/46/44 99/47/44 100/48/44
f 99/47/44 101/46/44 102/1/44
f 99/47/44 102/1/44 98/45/44
f 98/45/44 102/1/44 103/3/44
f 98/45/44 103/3/44 55/91/44
f 55/91/44 103/3/44 57/4/44
f 57/4/44 103/3/44 60/5/44
f 60/5/44 103/3/44 104/6/44
f 60/5/44 104/6/44 58/7/44
f 58/7/44 104/6/44 59/8/44
f 59/8/44 104/6/44 84/9/44
f 59/8/44 84/9/44 51/10/44
f 51/10/44 84/9/44 82/11/44
f 51/10/44 82/11/44 49/92/44
f 49/92/44 82/11/44 81/13/44
f 49/92/44 81/13/44 50/14/44
f 50/14/44 81/13/44 72/15/44
f 72/15/44 81/13/44 83/16/44
f 72/15/44 83/16/44 70/17/44
f 70/17/44 83/16/44 85/18/44
f 70/17/44 85/18/44 71/19/44
f 71/19/44 85/18/44 52/20/44
f 52/20/44 85/18/44 86/21/44
f 52/20/44 86/21/44 53/93/44
f 90/23/44 53/93/44 86/21/44
f 90/23/44 54/27/44 53/93/44
f 91/28/44 54/27/44 90/23/44
f 91/28/44 69/29/44 54/27/44
f 91/28/44 67/30/44 69/29/44
f 92/31/44 67/30/44 91/28/44
f 92/31/44 68/32/44 67/30/44
f 93/33/44 68/32/44 92/31/44
f 93/33/44 66/34/44 68/32/44
f 93/33/44 64/94/44 66/34/44
f 94/35/44 64/94/44 93/33/44
f 94/35/44 65/37/44 64/94/44
f 95/38/44 65/37/44 94/35/44
f 95/38/44 63/39/44 65/37/44
f 96/40/44 63/39/44 95/38/44
f 96/40/44 62/41/44 63/39/44
f 96/40/44 61/42/44 62/41/44
f 97/43/44 61/42/44 96/40/44
f 97/43/44 56/44/44 61/42/44
f 97/43/44 55/91/44 56/44/44
f 55/91/44 97/43/44 98/45/44
f 90/23/44 86/21/44 87/25/44
f 90/23/44 87/25/44 89/24/44
f 89/24/44 87/25/44 88/95/44
f 105/96/45 42/42/45 44/44/45
f 42/42/45 105/96/45 106/97/45
f 10/100/8 79/99/8 77/98/8
f 79/99/8 10/100/8 65/101/8
f 74/96/46 61/42/46 56/44/46
f 61/42/46 74/96/46 76/97/46
f 108/103/47 34/34/47 107/102/47
f 34/34/47 108/103/47 32/32/47
f 5/106/11 76/105/11 75/104/11
f 76/105/11 5/106/11 61/107/11
f 73/110/17 56/109/17 4/108/17
f 56/109/17 73/110/17 74/111/17
f 71/19/48 110/113/48 109/112/48
f 110/113/48 71/19/48 52/20/48
f 63/66/20 78/74/20 80/76/20
f 78/74/20 63/66/20 8/65/20
f 80/114/49 65/37/49 63/39/49
f 65/37/49 80/114/49 79/115/49
f 112/117/50 29/29/50 111/116/50
f 29/29/50 112/117/50 27/27/50
f 15/15/51 113/118/51 14/14/51
f 113/118/51 15/15/51 114/119/51
f 10/10/52 78/120/52 8/8/52
f 78/120/52 10/10/52 77/121/52
f 71/107/20 111/104/20 29/106/20
f 111/104/20 71/107/20 109/105/20
f 112/110/2 52/109/2 27/108/2
f 52/109/2 112/110/2 110/111/2
f 116/117/53 69/29/53 115/116/53
f 69/29/53 116/117/53 54/27/53
f 117/110/8 51/109/8 37/108/8
f 51/109/8 117/110/8 118/111/8
f 106/124/15 60/123/15 42/122/15
f 60/123/15 106/124/15 119/125/15
f 66/109/6 113/110/6 120/111/6
f 113/110/6 66/109/6 14/108/6
f 51/10/54 121/120/54 59/8/54
f 121/120/54 51/10/54 118/121/54
f 122/99/6 34/100/6 50/101/6
f 34/100/6 122/99/6 107/98/6
f 54/101/17 123/98/17 20/100/17
f 123/98/17 54/101/17 116/99/17
f 60/5/55 124/126/55 57/4/55
f 124/126/55 60/5/55 119/127/55
f 59/62/23 125/71/23 39/60/23
f 125/71/23 59/62/23 121/72/23
f 108/74/11 72/66/11 32/65/11
f 72/66/11 108/74/11 126/76/11
f 127/103/56 66/34/56 120/102/56
f 66/34/56 127/103/56 68/32/56
f 57/101/2 105/98/2 44/100/2
f 105/98/2 57/101/2 124/99/2
f 69/123/23 128/124/23 115/125/23
f 128/124/23 69/123/23 19/122/23
f 15/60/15 127/72/15 114/71/15
f 127/72/15 15/60/15 68/62/15
f 72/15/57 122/118/57 50/14/57
f 122/118/57 72/15/57 126/119/57
f 110/70/58 111/71/58 109/72/58
f 111/71/58 110/70/58 112/69/58
f 121/72/59 117/69/59 125/71/59
f 117/69/59 121/72/59 118/70/59
f 115/76/60 123/73/60 116/75/60
f 123/73/60 115/76/60 128/74/60
f 105/73/61 119/76/61 106/74/61
f 119/76/61 105/73/61 124/75/61
f 122/75/62 108/74/62 107/73/62
f 108/74/62 122/75/62 126/76/62
f 5/5/63 73/126/63 4/4/63
f 73/126/63 5/5/63 75/127/63
f 125/114/64 37/37/64 39/39/64
f 37/37/64 125/114/64 117/115/64
f 127/72/65 113/69/65 114/71/65
f 113/69/65 127/72/65 120/70/65
f 19/19/66 123/113/66 128/112/66
f 123/113/66 19/19/66 20/20/66

